<svg xmlns="http://www.w3.org/2000/svg" width="63" height="20" fill="none" viewBox="0 0 63 20">
  <g fill-rule="evenodd" clip-path="url(#clip0_492_40044)" clip-rule="evenodd">
    <path fill="#212223" d="M41.74 11.82c-.3.25-.52.6-.86 1.06a54.23 54.23 0 0 0-2.32 3.27c-.4.6-.77 1.12-1.09 1.75h4.37v1.77H35.1v-1.35c.31-.47.55-1 .9-1.55l1.1-1.7c.38-.56.75-1.12 1.12-1.64l1-1.36H35.3V10.3h6.44v1.52zM49.71 11.82a40.74 40.74 0 0 0-1.93 2.57c-.4.56-.78 1.16-1.18 1.76-.4.6-.76 1.12-1.08 1.75h4.3v1.77h-6.65v-1.35c.3-.47.54-1 .9-1.55a92.33 92.33 0 0 1 2.2-3.34c.36-.5.69-.94.97-1.36h-3.87V10.3h6.34v1.52h.01zM53.5 5.93h-.02c-.34 0-1.8.27-2.12.6l-.01.01v13.13h2.15V5.93zM60.87 14.05c0-.31-.04-.58-.12-.85-.09-.26-.2-.5-.36-.7a1.7 1.7 0 0 0-1.4-.63 1.88 1.88 0 0 0-1.49.69c-.17.2-.3.43-.4.69-.09.26-.15.49-.19.8h3.96zm-6.18.98c0-.83.12-1.55.36-2.17.24-.62.56-1.14.96-1.55a4.2 4.2 0 0 1 2.96-1.24c1.27 0 2.26.4 2.97 1.2.7.8 1.06 2 1.06 3.59a9.6 9.6 0 0 1-.04.76H56.9c.06.83.32 1.36.79 1.77.46.41 1.13.63 2.01.63a6.51 6.51 0 0 0 2.43-.43l.28 1.77c-.12.06-.28.13-.48.2a6.7 6.7 0 0 1-1.56.3 8 8 0 0 1-.93.06c-.81 0-1.52-.12-2.11-.37a3.93 3.93 0 0 1-2.35-2.56 6.39 6.39 0 0 1-.28-1.94zM16.28 10.3v4.9c0 1.01-.12 1.73-.4 2.16-.3.43-.78.64-1.5.64-.7 0-1.19-.21-1.47-.64-.29-.43-.41-1.15-.41-2.15v-4.9h-2.15v5.25c0 .63.06 1.21.19 1.74.13.54.34 1 .64 1.37.3.39.7.68 1.2.9.49.21 1.28.31 2.01.31.74 0 1.53-.1 2.03-.31.5-.22.9-.52 1.2-.9.3-.38.5-.84.63-1.37a7.4 7.4 0 0 0 .18-1.74V10.3h-2.15zM2.52 14.96c0-.92.17-1.65.53-2.19s.93-.8 1.7-.8a3.27 3.27 0 0 1 1.72.52v5.39c-.1.03-.34.06-.58.1a7.1 7.1 0 0 1-.86.04c-.79 0-1.4-.27-1.85-.82a3.44 3.44 0 0 1-.66-2.24M.66 17.02a4.01 4.01 0 0 0 2.4 2.53 5.3 5.3 0 0 0 1.95.35 12.1 12.1 0 0 0 3.6-.52V5.93c-.34 0-1.8.27-2.13.6l-.01 4.1a4.07 4.07 0 0 0-2.08-.52c-.64 0-1.22.1-1.73.34a3.4 3.4 0 0 0-1.27 1c-.35.43-.61.94-.8 1.55a6.9 6.9 0 0 0 .06 4.02zM25.6 17.2c-.44.55-1.06.82-1.84.82a7.05 7.05 0 0 1-1.45-.14v-5.4a3.3 3.3 0 0 1 1.73-.51c.78 0 1.34.26 1.7.8.36.54.54 1.27.54 2.19 0 .95-.23 1.7-.67 2.24m2.57-4.2a4.62 4.62 0 0 0-.78-1.55 3.4 3.4 0 0 0-1.28-1 4.13 4.13 0 0 0-1.73-.35c-.43 0-.82.06-1.18.16-.36.11-.7.23-.9.36V5.93h-.02c-.34 0-1.79.27-2.12.6v12.85a12.15 12.15 0 0 0 3.6.52 5.3 5.3 0 0 0 1.96-.34 4.01 4.01 0 0 0 2.4-2.54 6.9 6.9 0 0 0 .05-4.03M31.64 10.3s-1 0-1.28.18c-.34.23-.54.53-.54.92 0 .37.11 3.32.16 3.61.05.3.34.1.47.84.13.73.43 3.87.5 3.95.11.11.6.2.7.2.11 0 .6-.09.7-.2.08-.08.38-3.22.5-3.95.13-.74.43-.55.48-.84.04-.29.16-3.24.16-3.61 0-.4-.21-.7-.55-.92a3.61 3.61 0 0 0-1.27-.18h-.05M32.9 8.64c0 .69-.55 1.25-1.22 1.25-.68 0-1.22-.56-1.22-1.25S31 7.4 31.68 7.4c.67 0 1.22.55 1.22 1.24z"/>
    <path fill="#DE1F26" d="M31 4.02c.64-.54 1.63-1.55 1.63-2.32 0-1.17-.62-1.7-.62-1.7s.27.92-1.82 2.89c-1.8 1.68-1.55 3.22-1.54 3.32.05.95.44 2.05 1.11 2.5a2.8 2.8 0 0 1-.43-1.43c0-.16-.14-1.72 1.66-3.26"/>
    <path fill="#DE1F26" d="M34.41 7.42c-.03-.94-.33-1.01-.67-1.84-.48-1.33.34-2.47-.57-3.88-.28 1.8-1.6 2.33-2.56 3.48-.75.9-.95 2.06-.59 2.88.24-.7.9-1.2 1.66-1.2.97 0 1.75.8 1.75 1.78 0 .36-.1.7-.29.98.84-.3 1.3-1.31 1.27-2.2z"/>
  </g>
  <defs>
    <clipPath id="clip0_492_40044">
      <path fill="#fff" d="M0 0h62.67v20H0z" transform="translate(.33)"/>
    </clipPath>
  </defs>
</svg>
