<svg fill="none" xmlns="http://www.w3.org/2000/svg" viewBox="0 0 48 48"><path fill-rule="evenodd" clip-rule="evenodd" d="m44.29 34.08-4.2-3.23V18.69a16.05 16.05 0 0 0-32.1 0v12.16L3.8 34.08a1.7 1.7 0 0 0-.67 1.37v2.52c0 .95.77 1.73 1.73 1.73h38.37c.96 0 1.73-.78 1.73-1.73v-2.52c0-.54-.25-1.05-.67-1.37" fill="url(#a)"/><path fill-rule="evenodd" clip-rule="evenodd" d="M17.6 39.7a6.5 6.5 0 0 0 12.88 0z" fill="#919395"/><path fill-rule="evenodd" clip-rule="evenodd" d="M24.04 39.7v5.6c3.29 0 6-2.44 6.44-5.6z" fill="#919395"/><defs><linearGradient id="a" x1="11.5" y1="8" x2="45" y2="38" gradientUnits="userSpaceOnUse"><stop stop-color="#EDEEEE"/><stop offset="1" stop-color="#BDBEBF"/></linearGradient></defs></svg>